<mxfile host="Electron" modified="2023-04-13T15:59:27.007Z" agent="Mozilla/5.0 (Windows NT 10.0; Win64; x64) AppleWebKit/537.36 (KHTML, like Gecko) draw.io/21.1.2 Chrome/106.0.5249.199 Electron/21.4.3 Safari/537.36" etag="GoOAexVZwrLm2CwA6WoI" version="21.1.2" type="device">
  <diagram name="Trang-1" id="65f-bcQOaLg-jTsh_qc7">
    <mxGraphModel dx="10359" dy="681" grid="0" gridSize="10" guides="1" tooltips="1" connect="1" arrows="1" fold="1" page="1" pageScale="1" pageWidth="9300" pageHeight="9981" math="0" shadow="0">
      <root>
        <mxCell id="0" />
        <mxCell id="1" parent="0" />
        <mxCell id="_Iu4-vJZ2ZIg731-Mx2W-1" value="wprt_full" style="rounded=1;whiteSpace=wrap;html=1;fillColor=#b1ddf0;strokeColor=#10739e;" parent="1" vertex="1">
          <mxGeometry x="648" y="703" width="120" height="440" as="geometry" />
        </mxCell>
        <mxCell id="_Iu4-vJZ2ZIg731-Mx2W-2" value="rprt_empty" style="rounded=1;whiteSpace=wrap;html=1;fillColor=#b1ddf0;strokeColor=#10739e;" parent="1" vertex="1">
          <mxGeometry x="1928" y="703" width="120" height="440" as="geometry" />
        </mxCell>
        <mxCell id="_Iu4-vJZ2ZIg731-Mx2W-3" value="" style="endArrow=classic;html=1;rounded=0;entryX=-0.012;entryY=0.545;entryDx=0;entryDy=0;entryPerimeter=0;fillColor=#f8cecc;strokeColor=#b85450;" parent="1" target="_Iu4-vJZ2ZIg731-Mx2W-1" edge="1">
          <mxGeometry width="50" height="50" relative="1" as="geometry">
            <mxPoint x="528" y="943" as="sourcePoint" />
            <mxPoint x="638" y="963" as="targetPoint" />
          </mxGeometry>
        </mxCell>
        <mxCell id="_Iu4-vJZ2ZIg731-Mx2W-4" value="s_dstm.valid" style="text;html=1;strokeColor=#006EAF;fillColor=#1ba1e2;align=center;verticalAlign=middle;whiteSpace=wrap;rounded=0;fontColor=#ffffff;" parent="1" vertex="1">
          <mxGeometry x="392" y="923" width="116" height="30" as="geometry" />
        </mxCell>
        <mxCell id="_Iu4-vJZ2ZIg731-Mx2W-5" value="fifo_mem" style="rounded=1;whiteSpace=wrap;html=1;fillColor=#b1ddf0;strokeColor=#10739e;" parent="1" vertex="1">
          <mxGeometry x="1328" y="303" width="120" height="480" as="geometry" />
        </mxCell>
        <mxCell id="_Iu4-vJZ2ZIg731-Mx2W-13" value="" style="verticalLabelPosition=bottom;shadow=0;dashed=0;align=center;html=1;verticalAlign=top;shape=mxgraph.electrical.logic_gates.d_type_flip-flop;fillColor=#fff2cc;strokeColor=#d6b656;" parent="1" vertex="1">
          <mxGeometry x="3600" y="421" width="100" height="80" as="geometry" />
        </mxCell>
        <mxCell id="_Iu4-vJZ2ZIg731-Mx2W-14" value="" style="verticalLabelPosition=bottom;shadow=0;dashed=0;align=center;html=1;verticalAlign=top;shape=mxgraph.electrical.logic_gates.d_type_flip-flop;fillColor=#fff2cc;strokeColor=#d6b656;" parent="1" vertex="1">
          <mxGeometry x="3750" y="421" width="100" height="80" as="geometry" />
        </mxCell>
        <mxCell id="_Iu4-vJZ2ZIg731-Mx2W-20" value="" style="endArrow=classic;html=1;rounded=0;fillColor=#f8cecc;strokeColor=#b85450;exitX=0;exitY=0.5;exitDx=0;exitDy=0;" parent="1" source="k-_fbgpfqe8nSi_xEBhA-1" edge="1">
          <mxGeometry width="50" height="50" relative="1" as="geometry">
            <mxPoint x="1020" y="1090" as="sourcePoint" />
            <mxPoint x="780" y="1000" as="targetPoint" />
            <Array as="points">
              <mxPoint x="950" y="1000" />
              <mxPoint x="900" y="1000" />
            </Array>
          </mxGeometry>
        </mxCell>
        <mxCell id="_Iu4-vJZ2ZIg731-Mx2W-21" value="wq2_rprt" style="text;html=1;strokeColor=#b85450;fillColor=#f8cecc;align=center;verticalAlign=middle;whiteSpace=wrap;rounded=0;" parent="1" vertex="1">
          <mxGeometry x="778" y="1020" width="60" height="30" as="geometry" />
        </mxCell>
        <mxCell id="_Iu4-vJZ2ZIg731-Mx2W-23" value="" style="endArrow=classic;html=1;rounded=0;entryX=0;entryY=0.25;entryDx=0;entryDy=0;entryPerimeter=0;exitX=1;exitY=0.25;exitDx=0;exitDy=0;exitPerimeter=0;fillColor=#fff2cc;strokeColor=#d6b656;" parent="1" source="_Iu4-vJZ2ZIg731-Mx2W-13" target="_Iu4-vJZ2ZIg731-Mx2W-14" edge="1">
          <mxGeometry width="50" height="50" relative="1" as="geometry">
            <mxPoint x="3690" y="471" as="sourcePoint" />
            <mxPoint x="3740" y="421" as="targetPoint" />
          </mxGeometry>
        </mxCell>
        <mxCell id="_Iu4-vJZ2ZIg731-Mx2W-24" value="" style="endArrow=classic;html=1;rounded=0;exitX=-0.004;exitY=0.638;exitDx=0;exitDy=0;exitPerimeter=0;fillColor=#f8cecc;strokeColor=#b85450;" parent="1" source="_Iu4-vJZ2ZIg731-Mx2W-2" edge="1">
          <mxGeometry width="50" height="50" relative="1" as="geometry">
            <mxPoint x="1448" y="983" as="sourcePoint" />
            <mxPoint x="1070" y="983" as="targetPoint" />
            <Array as="points">
              <mxPoint x="1140" y="983" />
              <mxPoint x="1078" y="983" />
              <mxPoint x="1080" y="983" />
            </Array>
          </mxGeometry>
        </mxCell>
        <mxCell id="_Iu4-vJZ2ZIg731-Mx2W-26" value="" style="verticalLabelPosition=bottom;shadow=0;dashed=0;align=center;html=1;verticalAlign=top;shape=mxgraph.electrical.logic_gates.d_type_flip-flop;fillColor=#fff2cc;strokeColor=#d6b656;" parent="1" vertex="1">
          <mxGeometry x="4220" y="416" width="100" height="80" as="geometry" />
        </mxCell>
        <mxCell id="_Iu4-vJZ2ZIg731-Mx2W-27" value="" style="verticalLabelPosition=bottom;shadow=0;dashed=0;align=center;html=1;verticalAlign=top;shape=mxgraph.electrical.logic_gates.d_type_flip-flop;fillColor=#fff2cc;strokeColor=#d6b656;" parent="1" vertex="1">
          <mxGeometry x="4421" y="416" width="100" height="80" as="geometry" />
        </mxCell>
        <mxCell id="_Iu4-vJZ2ZIg731-Mx2W-28" value="rprt" style="text;html=1;strokeColor=#b85450;fillColor=#f8cecc;align=center;verticalAlign=middle;whiteSpace=wrap;rounded=0;" parent="1" vertex="1">
          <mxGeometry x="1849" y="997" width="60" height="30" as="geometry" />
        </mxCell>
        <mxCell id="_Iu4-vJZ2ZIg731-Mx2W-29" value="" style="endArrow=classic;html=1;rounded=0;exitX=1.011;exitY=0.447;exitDx=0;exitDy=0;exitPerimeter=0;fillColor=#f8cecc;strokeColor=#b85450;entryX=0;entryY=0.5;entryDx=0;entryDy=0;" parent="1" source="_Iu4-vJZ2ZIg731-Mx2W-1" target="k-_fbgpfqe8nSi_xEBhA-9" edge="1">
          <mxGeometry width="50" height="50" relative="1" as="geometry">
            <mxPoint x="898" y="913" as="sourcePoint" />
            <mxPoint x="1540" y="1250" as="targetPoint" />
            <Array as="points">
              <mxPoint x="1528" y="900" />
            </Array>
          </mxGeometry>
        </mxCell>
        <mxCell id="_Iu4-vJZ2ZIg731-Mx2W-30" value="w_prt" style="text;html=1;strokeColor=#b85450;fillColor=#f8cecc;align=center;verticalAlign=middle;whiteSpace=wrap;rounded=0;" parent="1" vertex="1">
          <mxGeometry x="820" y="860" width="60" height="30" as="geometry" />
        </mxCell>
        <mxCell id="_Iu4-vJZ2ZIg731-Mx2W-31" value="" style="endArrow=classic;html=1;rounded=0;exitX=1;exitY=0.25;exitDx=0;exitDy=0;exitPerimeter=0;fillColor=#fff2cc;strokeColor=#d6b656;" parent="1" source="_Iu4-vJZ2ZIg731-Mx2W-26" edge="1">
          <mxGeometry width="50" height="50" relative="1" as="geometry">
            <mxPoint x="4310" y="506" as="sourcePoint" />
            <mxPoint x="4420" y="436" as="targetPoint" />
          </mxGeometry>
        </mxCell>
        <mxCell id="_Iu4-vJZ2ZIg731-Mx2W-32" value="" style="endArrow=classic;html=1;rounded=0;entryX=-0.017;entryY=0.445;entryDx=0;entryDy=0;entryPerimeter=0;fillColor=#f8cecc;strokeColor=#b85450;" parent="1" source="k-_fbgpfqe8nSi_xEBhA-9" target="_Iu4-vJZ2ZIg731-Mx2W-2" edge="1">
          <mxGeometry width="50" height="50" relative="1" as="geometry">
            <mxPoint x="1750" y="1053" as="sourcePoint" />
            <mxPoint x="1888" y="1043" as="targetPoint" />
          </mxGeometry>
        </mxCell>
        <mxCell id="_Iu4-vJZ2ZIg731-Mx2W-33" value="rq2_wprt" style="text;html=1;strokeColor=#b85450;fillColor=#f8cecc;align=center;verticalAlign=middle;whiteSpace=wrap;rounded=0;" parent="1" vertex="1">
          <mxGeometry x="1842" y="853" width="60" height="30" as="geometry" />
        </mxCell>
        <mxCell id="_Iu4-vJZ2ZIg731-Mx2W-34" value="" style="endArrow=classic;html=1;rounded=0;exitX=1.013;exitY=0.183;exitDx=0;exitDy=0;exitPerimeter=0;entryX=0;entryY=1;entryDx=0;entryDy=0;fillColor=#f8cecc;strokeColor=#b85450;" parent="1" source="_Iu4-vJZ2ZIg731-Mx2W-1" target="_Iu4-vJZ2ZIg731-Mx2W-5" edge="1">
          <mxGeometry width="50" height="50" relative="1" as="geometry">
            <mxPoint x="878" y="843" as="sourcePoint" />
            <mxPoint x="928" y="793" as="targetPoint" />
          </mxGeometry>
        </mxCell>
        <mxCell id="_Iu4-vJZ2ZIg731-Mx2W-35" value="waddr" style="text;html=1;strokeColor=#b85450;fillColor=#f8cecc;align=center;verticalAlign=middle;whiteSpace=wrap;rounded=0;" parent="1" vertex="1">
          <mxGeometry x="788" y="733" width="60" height="30" as="geometry" />
        </mxCell>
        <mxCell id="_Iu4-vJZ2ZIg731-Mx2W-38" value="" style="endArrow=classic;html=1;rounded=0;entryX=0;entryY=0.25;entryDx=0;entryDy=0;fillColor=#f8cecc;strokeColor=#b85450;" parent="1" target="_Iu4-vJZ2ZIg731-Mx2W-5" edge="1">
          <mxGeometry width="50" height="50" relative="1" as="geometry">
            <mxPoint x="1208" y="423" as="sourcePoint" />
            <mxPoint x="1278" y="433" as="targetPoint" />
          </mxGeometry>
        </mxCell>
        <mxCell id="_Iu4-vJZ2ZIg731-Mx2W-39" value="wren" style="text;html=1;strokeColor=#b85450;fillColor=#f8cecc;align=center;verticalAlign=middle;whiteSpace=wrap;rounded=0;" parent="1" vertex="1">
          <mxGeometry x="1230" y="440" width="60" height="30" as="geometry" />
        </mxCell>
        <mxCell id="_Iu4-vJZ2ZIg731-Mx2W-41" value="comb" style="rounded=0;whiteSpace=wrap;html=1;fillColor=#f8cecc;strokeColor=#b85450;" parent="1" vertex="1">
          <mxGeometry x="1088" y="383" width="120" height="80" as="geometry" />
        </mxCell>
        <mxCell id="_Iu4-vJZ2ZIg731-Mx2W-43" value="" style="endArrow=classic;html=1;rounded=0;entryX=0;entryY=0;entryDx=0;entryDy=0;fillColor=#f8cecc;strokeColor=#b85450;" parent="1" target="_Iu4-vJZ2ZIg731-Mx2W-41" edge="1">
          <mxGeometry width="50" height="50" relative="1" as="geometry">
            <mxPoint x="568" y="944.5686753216912" as="sourcePoint" />
            <mxPoint x="828" y="353" as="targetPoint" />
            <Array as="points">
              <mxPoint x="568" y="383" />
            </Array>
          </mxGeometry>
        </mxCell>
        <mxCell id="_Iu4-vJZ2ZIg731-Mx2W-44" value="" style="endArrow=classic;html=1;rounded=0;entryX=-0.034;entryY=0.964;entryDx=0;entryDy=0;entryPerimeter=0;exitX=0.5;exitY=0;exitDx=0;exitDy=0;fillColor=#f8cecc;strokeColor=#b85450;" parent="1" source="_Iu4-vJZ2ZIg731-Mx2W-1" target="_Iu4-vJZ2ZIg731-Mx2W-41" edge="1">
          <mxGeometry width="50" height="50" relative="1" as="geometry">
            <mxPoint x="928" y="533" as="sourcePoint" />
            <mxPoint x="978" y="483" as="targetPoint" />
            <Array as="points">
              <mxPoint x="708" y="463" />
            </Array>
          </mxGeometry>
        </mxCell>
        <mxCell id="_Iu4-vJZ2ZIg731-Mx2W-45" value="wfull" style="text;html=1;strokeColor=#b85450;fillColor=#f8cecc;align=center;verticalAlign=middle;whiteSpace=wrap;rounded=0;" parent="1" vertex="1">
          <mxGeometry x="722" y="613" width="60" height="30" as="geometry" />
        </mxCell>
        <mxCell id="_Iu4-vJZ2ZIg731-Mx2W-47" value="" style="endArrow=classic;html=1;rounded=0;entryX=0;entryY=0;entryDx=0;entryDy=0;fillColor=#f8cecc;strokeColor=#b85450;" parent="1" target="_Iu4-vJZ2ZIg731-Mx2W-5" edge="1">
          <mxGeometry width="50" height="50" relative="1" as="geometry">
            <mxPoint x="488" y="303" as="sourcePoint" />
            <mxPoint x="898" y="273" as="targetPoint" />
          </mxGeometry>
        </mxCell>
        <mxCell id="_Iu4-vJZ2ZIg731-Mx2W-48" value="s_dstm.data" style="text;html=1;strokeColor=#006EAF;fillColor=#1ba1e2;align=center;verticalAlign=middle;whiteSpace=wrap;rounded=0;fontColor=#ffffff;" parent="1" vertex="1">
          <mxGeometry x="390" y="290" width="88" height="30" as="geometry" />
        </mxCell>
        <mxCell id="_Iu4-vJZ2ZIg731-Mx2W-49" value="" style="endArrow=classic;html=1;rounded=0;fillColor=#f8cecc;strokeColor=#b85450;" parent="1" edge="1">
          <mxGeometry width="50" height="50" relative="1" as="geometry">
            <mxPoint x="708" y="463" as="sourcePoint" />
            <mxPoint x="488" y="463" as="targetPoint" />
          </mxGeometry>
        </mxCell>
        <mxCell id="_Iu4-vJZ2ZIg731-Mx2W-50" value="" style="endArrow=classic;html=1;rounded=0;exitX=1;exitY=1;exitDx=0;exitDy=0;fillColor=#f8cecc;strokeColor=#b85450;" parent="1" source="_Iu4-vJZ2ZIg731-Mx2W-2" edge="1">
          <mxGeometry width="50" height="50" relative="1" as="geometry">
            <mxPoint x="2088" y="1093" as="sourcePoint" />
            <mxPoint x="2168" y="1143" as="targetPoint" />
          </mxGeometry>
        </mxCell>
        <mxCell id="_Iu4-vJZ2ZIg731-Mx2W-51" value="m_stalvl.empty&lt;br&gt;m_stalvl.almostempty" style="text;html=1;strokeColor=#B09500;fillColor=#e3c800;align=center;verticalAlign=middle;whiteSpace=wrap;rounded=0;fontColor=#000000;" parent="1" vertex="1">
          <mxGeometry x="2178" y="1100" width="121" height="49" as="geometry" />
        </mxCell>
        <mxCell id="_Iu4-vJZ2ZIg731-Mx2W-52" value="" style="endArrow=classic;html=1;rounded=0;entryX=1.025;entryY=0.819;entryDx=0;entryDy=0;entryPerimeter=0;fillColor=#f8cecc;strokeColor=#b85450;" parent="1" target="_Iu4-vJZ2ZIg731-Mx2W-2" edge="1">
          <mxGeometry width="50" height="50" relative="1" as="geometry">
            <mxPoint x="2168" y="1063" as="sourcePoint" />
            <mxPoint x="2178" y="1013" as="targetPoint" />
          </mxGeometry>
        </mxCell>
        <mxCell id="_Iu4-vJZ2ZIg731-Mx2W-53" value="m_dstm.ready" style="text;html=1;strokeColor=#d6b656;fillColor=#fff2cc;align=center;verticalAlign=middle;whiteSpace=wrap;rounded=0;" parent="1" vertex="1">
          <mxGeometry x="2159" y="1045" width="118" height="30" as="geometry" />
        </mxCell>
        <mxCell id="_Iu4-vJZ2ZIg731-Mx2W-54" value="" style="endArrow=classic;html=1;rounded=0;entryX=1.025;entryY=0.916;entryDx=0;entryDy=0;entryPerimeter=0;exitX=-0.031;exitY=0.089;exitDx=0;exitDy=0;exitPerimeter=0;fillColor=#f8cecc;strokeColor=#b85450;" parent="1" source="_Iu4-vJZ2ZIg731-Mx2W-2" target="_Iu4-vJZ2ZIg731-Mx2W-5" edge="1">
          <mxGeometry width="50" height="50" relative="1" as="geometry">
            <mxPoint x="1808" y="823" as="sourcePoint" />
            <mxPoint x="1858" y="773" as="targetPoint" />
            <Array as="points">
              <mxPoint x="1808" y="743" />
            </Array>
          </mxGeometry>
        </mxCell>
        <mxCell id="_Iu4-vJZ2ZIg731-Mx2W-55" value="raddr" style="text;html=1;strokeColor=#b85450;fillColor=#f8cecc;align=center;verticalAlign=middle;whiteSpace=wrap;rounded=0;" parent="1" vertex="1">
          <mxGeometry x="1857" y="753" width="60" height="30" as="geometry" />
        </mxCell>
        <mxCell id="_Iu4-vJZ2ZIg731-Mx2W-56" value="" style="endArrow=classic;html=1;rounded=0;fillColor=#f8cecc;strokeColor=#b85450;" parent="1" edge="1">
          <mxGeometry width="50" height="50" relative="1" as="geometry">
            <mxPoint x="1448" y="663" as="sourcePoint" />
            <mxPoint x="2248" y="663" as="targetPoint" />
          </mxGeometry>
        </mxCell>
        <mxCell id="_Iu4-vJZ2ZIg731-Mx2W-57" value="m_dstm.data" style="text;html=1;strokeColor=#d6b656;fillColor=#fff2cc;align=center;verticalAlign=middle;whiteSpace=wrap;rounded=0;" parent="1" vertex="1">
          <mxGeometry x="2250" y="643" width="100" height="30" as="geometry" />
        </mxCell>
        <mxCell id="_Iu4-vJZ2ZIg731-Mx2W-58" value="" style="endArrow=classic;html=1;rounded=0;exitX=-0.025;exitY=0.769;exitDx=0;exitDy=0;exitPerimeter=0;" parent="1" source="_Iu4-vJZ2ZIg731-Mx2W-1" edge="1">
          <mxGeometry width="50" height="50" relative="1" as="geometry">
            <mxPoint x="419" y="1061" as="sourcePoint" />
            <mxPoint x="533" y="1042" as="targetPoint" />
          </mxGeometry>
        </mxCell>
        <mxCell id="_Iu4-vJZ2ZIg731-Mx2W-59" value="s_dstm.ready" style="rounded=0;whiteSpace=wrap;html=1;fillColor=#1ba1e2;strokeColor=#006EAF;fontColor=#ffffff;" parent="1" vertex="1">
          <mxGeometry x="400" y="1020" width="120" height="37" as="geometry" />
        </mxCell>
        <mxCell id="_Iu4-vJZ2ZIg731-Mx2W-60" value="" style="endArrow=classic;html=1;rounded=0;exitX=1.017;exitY=0.675;exitDx=0;exitDy=0;exitPerimeter=0;" parent="1" source="_Iu4-vJZ2ZIg731-Mx2W-2" edge="1">
          <mxGeometry width="50" height="50" relative="1" as="geometry">
            <mxPoint x="2090" y="1000" as="sourcePoint" />
            <mxPoint x="2170" y="1000" as="targetPoint" />
          </mxGeometry>
        </mxCell>
        <mxCell id="_Iu4-vJZ2ZIg731-Mx2W-62" value="m_dstm.valid" style="rounded=0;whiteSpace=wrap;html=1;fillColor=#fff2cc;strokeColor=#d6b656;" parent="1" vertex="1">
          <mxGeometry x="2170" y="980" width="120" height="35" as="geometry" />
        </mxCell>
        <mxCell id="_Iu4-vJZ2ZIg731-Mx2W-64" value="&lt;br style=&quot;border-color: var(--border-color); text-align: left;&quot;&gt;s_stalvl:&lt;br style=&quot;border-color: var(--border-color); text-align: left;&quot;&gt;&lt;span style=&quot;text-align: left;&quot;&gt;output full, almostfull,&lt;/span&gt;&lt;br style=&quot;border-color: var(--border-color); text-align: left;&quot;&gt;&lt;span style=&quot;text-align: left;&quot;&gt;output empty, almostempty&lt;/span&gt;" style="rounded=0;whiteSpace=wrap;html=1;fillColor=#d5e8d4;strokeColor=#82b366;" parent="1" vertex="1">
          <mxGeometry x="198" y="683" width="120" height="167" as="geometry" />
        </mxCell>
        <mxCell id="_Iu4-vJZ2ZIg731-Mx2W-65" value="&lt;div&gt;  output full, almostfull,&lt;/div&gt;&lt;div&gt;&lt;span style=&quot;&quot;&gt;  &lt;/span&gt;output empty, almostempty&lt;/div&gt;" style="rounded=0;whiteSpace=wrap;html=1;fillColor=#e1d5e7;strokeColor=#9673a6;" parent="1" vertex="1">
          <mxGeometry x="1797" y="420" width="120" height="130" as="geometry" />
        </mxCell>
        <mxCell id="_Iu4-vJZ2ZIg731-Mx2W-66" value="wq1_rptr" style="text;html=1;strokeColor=#d6b656;fillColor=#fff2cc;align=center;verticalAlign=middle;whiteSpace=wrap;rounded=0;" parent="1" vertex="1">
          <mxGeometry x="3690" y="420" width="60" height="13" as="geometry" />
        </mxCell>
        <mxCell id="_Iu4-vJZ2ZIg731-Mx2W-67" value="rq1_wptr" style="text;html=1;strokeColor=#d6b656;fillColor=#fff2cc;align=center;verticalAlign=middle;whiteSpace=wrap;rounded=0;" parent="1" vertex="1">
          <mxGeometry x="4332" y="403" width="60" height="20" as="geometry" />
        </mxCell>
        <mxCell id="k-_fbgpfqe8nSi_xEBhA-1" value="sync_r2w" style="rounded=0;whiteSpace=wrap;html=1;fillColor=#b1ddf0;strokeColor=#10739e;" parent="1" vertex="1">
          <mxGeometry x="990" y="960" width="80" height="80" as="geometry" />
        </mxCell>
        <mxCell id="k-_fbgpfqe8nSi_xEBhA-3" value="sync_r2w" style="swimlane;whiteSpace=wrap;html=1;startSize=23;fillColor=#fff2cc;strokeColor=#d6b656;" parent="1" vertex="1">
          <mxGeometry x="3560" y="340" width="320" height="207" as="geometry" />
        </mxCell>
        <mxCell id="k-_fbgpfqe8nSi_xEBhA-4" value="" style="endArrow=classic;html=1;rounded=0;entryX=0;entryY=0.25;entryDx=0;entryDy=0;entryPerimeter=0;fillColor=#fff2cc;strokeColor=#d6b656;" parent="1" target="_Iu4-vJZ2ZIg731-Mx2W-13" edge="1">
          <mxGeometry width="50" height="50" relative="1" as="geometry">
            <mxPoint x="3480" y="441" as="sourcePoint" />
            <mxPoint x="3450" y="440" as="targetPoint" />
          </mxGeometry>
        </mxCell>
        <mxCell id="k-_fbgpfqe8nSi_xEBhA-5" value="" style="endArrow=classic;html=1;rounded=0;exitX=1;exitY=0.25;exitDx=0;exitDy=0;exitPerimeter=0;fillColor=#fff2cc;strokeColor=#d6b656;" parent="1" source="_Iu4-vJZ2ZIg731-Mx2W-14" edge="1">
          <mxGeometry width="50" height="50" relative="1" as="geometry">
            <mxPoint x="3850" y="440" as="sourcePoint" />
            <mxPoint x="3960" y="440" as="targetPoint" />
          </mxGeometry>
        </mxCell>
        <mxCell id="k-_fbgpfqe8nSi_xEBhA-6" value="rprt" style="text;html=1;strokeColor=#d6b656;fillColor=#fff2cc;align=center;verticalAlign=middle;whiteSpace=wrap;rounded=0;" parent="1" vertex="1">
          <mxGeometry x="3480" y="403" width="60" height="30" as="geometry" />
        </mxCell>
        <mxCell id="k-_fbgpfqe8nSi_xEBhA-7" value="wq2_rprt" style="text;html=1;strokeColor=#d6b656;fillColor=#fff2cc;align=center;verticalAlign=middle;whiteSpace=wrap;rounded=0;" parent="1" vertex="1">
          <mxGeometry x="3970" y="421" width="60" height="30" as="geometry" />
        </mxCell>
        <mxCell id="k-_fbgpfqe8nSi_xEBhA-9" value="sync_w2r" style="rounded=0;whiteSpace=wrap;html=1;fillColor=#b1ddf0;strokeColor=#10739e;" parent="1" vertex="1">
          <mxGeometry x="1598" y="860" width="80" height="80" as="geometry" />
        </mxCell>
        <mxCell id="k-_fbgpfqe8nSi_xEBhA-10" value="sync_w2r" style="swimlane;whiteSpace=wrap;html=1;startSize=23;fillColor=#fff2cc;strokeColor=#d6b656;" parent="1" vertex="1">
          <mxGeometry x="4198" y="356" width="362" height="224" as="geometry" />
        </mxCell>
        <mxCell id="k-_fbgpfqe8nSi_xEBhA-11" value="" style="endArrow=classic;html=1;rounded=0;entryX=0;entryY=0.25;entryDx=0;entryDy=0;entryPerimeter=0;fillColor=#fff2cc;strokeColor=#d6b656;" parent="1" target="_Iu4-vJZ2ZIg731-Mx2W-26" edge="1">
          <mxGeometry width="50" height="50" relative="1" as="geometry">
            <mxPoint x="4120" y="436" as="sourcePoint" />
            <mxPoint x="4130" y="460" as="targetPoint" />
          </mxGeometry>
        </mxCell>
        <mxCell id="k-_fbgpfqe8nSi_xEBhA-12" value="w_prt" style="text;html=1;strokeColor=#d6b656;fillColor=#fff2cc;align=center;verticalAlign=middle;whiteSpace=wrap;rounded=0;" parent="1" vertex="1">
          <mxGeometry x="4120" y="403" width="60" height="30" as="geometry" />
        </mxCell>
        <mxCell id="k-_fbgpfqe8nSi_xEBhA-13" value="" style="endArrow=classic;html=1;rounded=0;exitX=1;exitY=0.25;exitDx=0;exitDy=0;exitPerimeter=0;fillColor=#fff2cc;strokeColor=#d6b656;" parent="1" source="_Iu4-vJZ2ZIg731-Mx2W-27" edge="1">
          <mxGeometry width="50" height="50" relative="1" as="geometry">
            <mxPoint x="4710" y="450" as="sourcePoint" />
            <mxPoint x="4610" y="436" as="targetPoint" />
          </mxGeometry>
        </mxCell>
        <mxCell id="k-_fbgpfqe8nSi_xEBhA-14" value="rq2_wprt" style="text;html=1;strokeColor=#d6b656;fillColor=#fff2cc;align=center;verticalAlign=middle;whiteSpace=wrap;rounded=0;" parent="1" vertex="1">
          <mxGeometry x="4620" y="421" width="60" height="30" as="geometry" />
        </mxCell>
        <mxCell id="k-_fbgpfqe8nSi_xEBhA-16" value="input, output đều là gray" style="shape=callout;whiteSpace=wrap;html=1;perimeter=calloutPerimeter;fillColor=#fff2cc;strokeColor=#d6b656;" parent="1" vertex="1">
          <mxGeometry x="3778" y="260" width="120" height="80" as="geometry" />
        </mxCell>
        <mxCell id="k-_fbgpfqe8nSi_xEBhA-17" value="input, output đều là gray" style="shape=callout;whiteSpace=wrap;html=1;perimeter=calloutPerimeter;fillColor=#fff2cc;strokeColor=#d6b656;" parent="1" vertex="1">
          <mxGeometry x="4380" y="270" width="120" height="80" as="geometry" />
        </mxCell>
        <mxCell id="k-_fbgpfqe8nSi_xEBhA-19" value="fifo_mem" style="rounded=0;whiteSpace=wrap;html=1;fillColor=#dae8fc;strokeColor=#6c8ebf;" parent="1" vertex="1">
          <mxGeometry x="3720" y="740" width="80" height="200" as="geometry" />
        </mxCell>
        <mxCell id="k-_fbgpfqe8nSi_xEBhA-20" value="" style="endArrow=classic;html=1;rounded=0;" parent="1" edge="1">
          <mxGeometry width="50" height="50" relative="1" as="geometry">
            <mxPoint x="3640" y="780" as="sourcePoint" />
            <mxPoint x="3720" y="780" as="targetPoint" />
          </mxGeometry>
        </mxCell>
        <mxCell id="k-_fbgpfqe8nSi_xEBhA-24" value="" style="endArrow=classic;html=1;rounded=0;exitX=0.999;exitY=0.6;exitDx=0;exitDy=0;exitPerimeter=0;" parent="1" source="k-_fbgpfqe8nSi_xEBhA-19" edge="1">
          <mxGeometry width="50" height="50" relative="1" as="geometry">
            <mxPoint x="3825" y="927" as="sourcePoint" />
            <mxPoint x="3880" y="860" as="targetPoint" />
          </mxGeometry>
        </mxCell>
        <mxCell id="k-_fbgpfqe8nSi_xEBhA-25" value="" style="endArrow=classic;html=1;rounded=0;entryX=1.017;entryY=0.201;entryDx=0;entryDy=0;exitX=0;exitY=0.5;exitDx=0;exitDy=0;entryPerimeter=0;" parent="1" source="k-_fbgpfqe8nSi_xEBhA-26" target="k-_fbgpfqe8nSi_xEBhA-19" edge="1">
          <mxGeometry width="50" height="50" relative="1" as="geometry">
            <mxPoint x="3868" y="802" as="sourcePoint" />
            <mxPoint x="3901" y="733" as="targetPoint" />
          </mxGeometry>
        </mxCell>
        <mxCell id="k-_fbgpfqe8nSi_xEBhA-26" value="input: i_clk_m, i_rst_n_m&lt;br&gt;m_dstm.ready&lt;br&gt;raddr" style="text;html=1;strokeColor=#6c8ebf;fillColor=#dae8fc;align=center;verticalAlign=middle;whiteSpace=wrap;rounded=0;" parent="1" vertex="1">
          <mxGeometry x="3880" y="751" width="159" height="58" as="geometry" />
        </mxCell>
        <mxCell id="k-_fbgpfqe8nSi_xEBhA-27" value="rdata" style="text;html=1;strokeColor=none;fillColor=none;align=center;verticalAlign=middle;whiteSpace=wrap;rounded=0;" parent="1" vertex="1">
          <mxGeometry x="3880" y="850" width="60" height="20" as="geometry" />
        </mxCell>
        <mxCell id="k-_fbgpfqe8nSi_xEBhA-28" value="input:&lt;br&gt;i_clk_s&lt;br&gt;s_dstm.valid&lt;br&gt;s_dstm.data&lt;br&gt;wfull" style="text;html=1;strokeColor=#6c8ebf;fillColor=#dae8fc;align=center;verticalAlign=middle;whiteSpace=wrap;rounded=0;" parent="1" vertex="1">
          <mxGeometry x="3520" y="740" width="120" height="80" as="geometry" />
        </mxCell>
        <mxCell id="k-_fbgpfqe8nSi_xEBhA-29" value="active theo i_clk_s:&lt;br&gt;nếu s_dstm.valid &amp;amp;&amp;amp;&amp;nbsp; not wfull =&amp;gt; write data" style="text;html=1;strokeColor=#6c8ebf;fillColor=#dae8fc;align=center;verticalAlign=middle;whiteSpace=wrap;rounded=0;" parent="1" vertex="1">
          <mxGeometry x="3520" y="888" width="153" height="52" as="geometry" />
        </mxCell>
        <mxCell id="k-_fbgpfqe8nSi_xEBhA-30" value="active theo i_clk_m&lt;br&gt;Nếu m_dstm.ready =&amp;gt; read data" style="text;html=1;strokeColor=#6c8ebf;fillColor=#dae8fc;align=center;verticalAlign=middle;whiteSpace=wrap;rounded=0;" parent="1" vertex="1">
          <mxGeometry x="3880" y="888" width="120" height="50" as="geometry" />
        </mxCell>
        <mxCell id="k-_fbgpfqe8nSi_xEBhA-33" value="&lt;div&gt;s_dstm:&lt;/div&gt;&lt;div&gt;&lt;span style=&quot;&quot;&gt;  &lt;/span&gt;input valid,&lt;/div&gt;&lt;div&gt;&lt;span style=&quot;&quot;&gt;  &lt;/span&gt;input data,&lt;/div&gt;&lt;div&gt;&lt;span style=&quot;&quot;&gt;  &lt;/span&gt;output ready&lt;/div&gt;&lt;div&gt;&lt;br&gt;&lt;/div&gt;&lt;div&gt;&lt;br&gt;&lt;/div&gt;" style="text;html=1;strokeColor=#006EAF;fillColor=#1ba1e2;align=center;verticalAlign=middle;whiteSpace=wrap;rounded=0;fontColor=#ffffff;" parent="1" vertex="1">
          <mxGeometry x="198" y="905" width="137" height="149" as="geometry" />
        </mxCell>
        <mxCell id="k-_fbgpfqe8nSi_xEBhA-34" value="&lt;br&gt;m_stalvl:&lt;br&gt;  output full, almostfull,&lt;br&gt;  output empty, almostempty" style="text;whiteSpace=wrap;html=1;fillColor=#e3c800;strokeColor=#B09500;fontColor=#000000;" parent="1" vertex="1">
          <mxGeometry x="2400" y="960" width="178.09" height="111.18" as="geometry" />
        </mxCell>
        <mxCell id="k-_fbgpfqe8nSi_xEBhA-36" value="&lt;div style=&quot;border-color: var(--border-color);&quot;&gt;m_dstm:&lt;/div&gt;&lt;div style=&quot;border-color: var(--border-color);&quot;&gt;input ready,&lt;/div&gt;&lt;div style=&quot;border-color: var(--border-color);&quot;&gt;&lt;span style=&quot;border-color: var(--border-color);&quot;&gt;&lt;/span&gt;output data,&lt;/div&gt;&lt;div style=&quot;border-color: var(--border-color);&quot;&gt;&lt;span style=&quot;border-color: var(--border-color);&quot;&gt;&lt;/span&gt;output valid&lt;/div&gt;" style="text;html=1;strokeColor=#d6b656;fillColor=#fff2cc;align=center;verticalAlign=middle;whiteSpace=wrap;rounded=0;" parent="1" vertex="1">
          <mxGeometry x="2400" y="740" width="112" height="132" as="geometry" />
        </mxCell>
        <mxCell id="k-_fbgpfqe8nSi_xEBhA-37" value="&lt;div&gt; input&amp;nbsp; i_clk_s,&lt;/div&gt;&lt;div&gt;&lt;span style=&quot;&quot;&gt; &lt;/span&gt;input&amp;nbsp; i_rst_n_s,&lt;/div&gt;" style="text;html=1;strokeColor=#005700;fillColor=#008a00;align=center;verticalAlign=middle;whiteSpace=wrap;rounded=0;fontColor=#ffffff;" parent="1" vertex="1">
          <mxGeometry x="194" y="1119" width="152" height="94" as="geometry" />
        </mxCell>
        <mxCell id="k-_fbgpfqe8nSi_xEBhA-38" value="&lt;div&gt; input&amp;nbsp; i_clk_m,&lt;/div&gt;&lt;div&gt;&lt;span style=&quot;&quot;&gt; &lt;/span&gt;input&amp;nbsp; i_rst_n_m,&lt;/div&gt;" style="text;html=1;strokeColor=#6c8ebf;fillColor=#dae8fc;align=center;verticalAlign=middle;whiteSpace=wrap;rounded=0;" parent="1" vertex="1">
          <mxGeometry x="2394" y="1113" width="129" height="116" as="geometry" />
        </mxCell>
        <mxCell id="k-_fbgpfqe8nSi_xEBhA-39" value="&lt;br&gt;m_stalvl:&lt;br&gt;  output full, almostfull,&lt;br&gt;  output empty, almostempty" style="text;whiteSpace=wrap;html=1;fillColor=#e3c800;strokeColor=#B09500;fontColor=#000000;" parent="1" vertex="1">
          <mxGeometry x="121" y="443" width="157" height="111.18" as="geometry" />
        </mxCell>
        <mxCell id="k-_fbgpfqe8nSi_xEBhA-40" value="s_stalvl:&lt;br&gt;&lt;div&gt;  input full, almostfull,&lt;/div&gt;&lt;div&gt;&lt;span style=&quot;background-color: initial;&quot;&gt;input empty, almostempty&lt;/span&gt;&lt;br&gt;&lt;/div&gt;" style="rounded=0;whiteSpace=wrap;html=1;fillColor=#d5e8d4;strokeColor=#82b366;" parent="1" vertex="1">
          <mxGeometry x="2400" y="1277" width="120" height="167" as="geometry" />
        </mxCell>
        <mxCell id="k-_fbgpfqe8nSi_xEBhA-41" value="m_stalvl.full&lt;br&gt;m_stalvl.almostfull" style="text;html=1;strokeColor=#B09500;fillColor=#e3c800;align=center;verticalAlign=middle;whiteSpace=wrap;rounded=0;fontColor=#000000;" parent="1" vertex="1">
          <mxGeometry x="373" y="440" width="113" height="54" as="geometry" />
        </mxCell>
        <mxCell id="k-_fbgpfqe8nSi_xEBhA-42" value="wprt_full: control write mode" style="swimlane;whiteSpace=wrap;html=1;startSize=40;fillColor=#d80073;fontColor=#ffffff;strokeColor=#A50040;" parent="1" vertex="1">
          <mxGeometry x="-300" y="1360" width="660" height="770" as="geometry" />
        </mxCell>
        <mxCell id="k-_fbgpfqe8nSi_xEBhA-76" value="" style="verticalLabelPosition=bottom;shadow=0;dashed=0;align=center;html=1;verticalAlign=top;shape=mxgraph.electrical.logic_gates.d_type_flip-flop_with_clear_2;" parent="k-_fbgpfqe8nSi_xEBhA-42" vertex="1">
          <mxGeometry x="320" y="310" width="100" height="90" as="geometry" />
        </mxCell>
        <mxCell id="k-_fbgpfqe8nSi_xEBhA-77" value="" style="verticalLabelPosition=bottom;shadow=0;dashed=0;align=center;html=1;verticalAlign=top;shape=mxgraph.electrical.logic_gates.d_type_flip-flop_with_clear_2;" parent="k-_fbgpfqe8nSi_xEBhA-42" vertex="1">
          <mxGeometry x="550" y="70" width="100" height="90" as="geometry" />
        </mxCell>
        <mxCell id="k-_fbgpfqe8nSi_xEBhA-79" value="" style="endArrow=classic;html=1;rounded=0;entryX=0;entryY=0.36;entryDx=0;entryDy=0;entryPerimeter=0;" parent="k-_fbgpfqe8nSi_xEBhA-42" target="k-_fbgpfqe8nSi_xEBhA-77" edge="1">
          <mxGeometry width="50" height="50" relative="1" as="geometry">
            <mxPoint x="530" y="200" as="sourcePoint" />
            <mxPoint x="460" y="150" as="targetPoint" />
            <Array as="points">
              <mxPoint x="530" y="102" />
            </Array>
          </mxGeometry>
        </mxCell>
        <mxCell id="k-_fbgpfqe8nSi_xEBhA-80" value="wgray_next" style="text;html=1;strokeColor=#A50040;fillColor=#d80073;align=center;verticalAlign=middle;whiteSpace=wrap;rounded=0;fontColor=#ffffff;" parent="k-_fbgpfqe8nSi_xEBhA-42" vertex="1">
          <mxGeometry x="490" y="200" width="80" height="30" as="geometry" />
        </mxCell>
        <mxCell id="k-_fbgpfqe8nSi_xEBhA-85" value="" style="endArrow=classic;html=1;rounded=0;entryX=0.003;entryY=0.597;entryDx=0;entryDy=0;entryPerimeter=0;" parent="k-_fbgpfqe8nSi_xEBhA-42" target="k-_fbgpfqe8nSi_xEBhA-80" edge="1">
          <mxGeometry width="50" height="50" relative="1" as="geometry">
            <mxPoint x="420" y="220" as="sourcePoint" />
            <mxPoint x="420" y="250" as="targetPoint" />
          </mxGeometry>
        </mxCell>
        <mxCell id="k-_fbgpfqe8nSi_xEBhA-86" value="combination&lt;br&gt;bin to gray" style="rounded=0;whiteSpace=wrap;html=1;fillColor=#d80073;fontColor=#ffffff;strokeColor=#A50040;" parent="k-_fbgpfqe8nSi_xEBhA-42" vertex="1">
          <mxGeometry x="340" y="190" width="80" height="60" as="geometry" />
        </mxCell>
        <mxCell id="k-_fbgpfqe8nSi_xEBhA-87" value="" style="endArrow=classic;html=1;rounded=0;entryX=0;entryY=0.5;entryDx=0;entryDy=0;exitX=0;exitY=0.36;exitDx=0;exitDy=0;exitPerimeter=0;" parent="k-_fbgpfqe8nSi_xEBhA-42" source="k-_fbgpfqe8nSi_xEBhA-76" target="k-_fbgpfqe8nSi_xEBhA-86" edge="1">
          <mxGeometry width="50" height="50" relative="1" as="geometry">
            <mxPoint x="240" y="220" as="sourcePoint" />
            <mxPoint x="340" y="240" as="targetPoint" />
            <Array as="points">
              <mxPoint x="220" y="342" />
              <mxPoint x="220" y="220" />
            </Array>
          </mxGeometry>
        </mxCell>
        <mxCell id="k-_fbgpfqe8nSi_xEBhA-88" value="" style="endArrow=classic;html=1;rounded=0;exitX=1;exitY=0.36;exitDx=0;exitDy=0;exitPerimeter=0;" parent="k-_fbgpfqe8nSi_xEBhA-42" source="k-_fbgpfqe8nSi_xEBhA-76" edge="1">
          <mxGeometry width="50" height="50" relative="1" as="geometry">
            <mxPoint x="560" y="300" as="sourcePoint" />
            <mxPoint x="600" y="340" as="targetPoint" />
          </mxGeometry>
        </mxCell>
        <mxCell id="k-_fbgpfqe8nSi_xEBhA-89" value="wbin là con trỏ, dư 1 slot so với addr" style="rounded=0;whiteSpace=wrap;html=1;fillColor=#d80073;fontColor=#ffffff;strokeColor=#A50040;" parent="k-_fbgpfqe8nSi_xEBhA-42" vertex="1">
          <mxGeometry x="604" y="290" width="56" height="110" as="geometry" />
        </mxCell>
        <mxCell id="k-_fbgpfqe8nSi_xEBhA-90" value="" style="endArrow=classic;html=1;rounded=0;" parent="k-_fbgpfqe8nSi_xEBhA-42" edge="1">
          <mxGeometry width="50" height="50" relative="1" as="geometry">
            <mxPoint x="460" y="340" as="sourcePoint" />
            <mxPoint x="380" y="440" as="targetPoint" />
            <Array as="points">
              <mxPoint x="460" y="440" />
            </Array>
          </mxGeometry>
        </mxCell>
        <mxCell id="k-_fbgpfqe8nSi_xEBhA-91" value="wbin" style="text;html=1;strokeColor=#A50040;fillColor=#d80073;align=center;verticalAlign=middle;whiteSpace=wrap;rounded=0;fontColor=#ffffff;" parent="k-_fbgpfqe8nSi_xEBhA-42" vertex="1">
          <mxGeometry x="450" y="285" width="60" height="40" as="geometry" />
        </mxCell>
        <mxCell id="k-_fbgpfqe8nSi_xEBhA-92" value="wbin_next" style="text;html=1;strokeColor=#A50040;fillColor=#d80073;align=center;verticalAlign=middle;whiteSpace=wrap;rounded=0;fontColor=#ffffff;" parent="k-_fbgpfqe8nSi_xEBhA-42" vertex="1">
          <mxGeometry x="250" y="290" width="60" height="40" as="geometry" />
        </mxCell>
        <mxCell id="k-_fbgpfqe8nSi_xEBhA-93" value="tăng dần vị trí" style="rounded=0;whiteSpace=wrap;html=1;fillColor=#d80073;fontColor=#ffffff;strokeColor=#A50040;" parent="k-_fbgpfqe8nSi_xEBhA-42" vertex="1">
          <mxGeometry x="260" y="425" width="120" height="60" as="geometry" />
        </mxCell>
        <mxCell id="k-_fbgpfqe8nSi_xEBhA-94" value="" style="endArrow=classic;html=1;rounded=0;exitX=0;exitY=0.5;exitDx=0;exitDy=0;" parent="k-_fbgpfqe8nSi_xEBhA-42" source="k-_fbgpfqe8nSi_xEBhA-93" edge="1">
          <mxGeometry width="50" height="50" relative="1" as="geometry">
            <mxPoint x="120" y="430" as="sourcePoint" />
            <mxPoint x="220" y="340" as="targetPoint" />
            <Array as="points">
              <mxPoint x="220" y="455" />
            </Array>
          </mxGeometry>
        </mxCell>
        <mxCell id="k-_fbgpfqe8nSi_xEBhA-97" value="" style="verticalLabelPosition=bottom;shadow=0;dashed=0;align=center;html=1;verticalAlign=top;shape=mxgraph.electrical.logic_gates.d_type_flip-flop_with_clear_2;" parent="k-_fbgpfqe8nSi_xEBhA-42" vertex="1">
          <mxGeometry x="380" y="500" width="100" height="90" as="geometry" />
        </mxCell>
        <mxCell id="k-_fbgpfqe8nSi_xEBhA-98" value="" style="verticalLabelPosition=bottom;shadow=0;dashed=0;align=center;html=1;verticalAlign=top;shape=mxgraph.electrical.logic_gates.d_type_flip-flop_with_clear_2;" parent="k-_fbgpfqe8nSi_xEBhA-42" vertex="1">
          <mxGeometry x="380" y="600" width="100" height="90" as="geometry" />
        </mxCell>
        <mxCell id="k-_fbgpfqe8nSi_xEBhA-99" value="wfull_val" style="text;html=1;strokeColor=none;fillColor=none;align=center;verticalAlign=middle;whiteSpace=wrap;rounded=0;" parent="k-_fbgpfqe8nSi_xEBhA-42" vertex="1">
          <mxGeometry x="280" y="640" width="60" height="30" as="geometry" />
        </mxCell>
        <mxCell id="k-_fbgpfqe8nSi_xEBhA-100" value="awfull_val" style="text;html=1;strokeColor=none;fillColor=none;align=center;verticalAlign=middle;whiteSpace=wrap;rounded=0;" parent="k-_fbgpfqe8nSi_xEBhA-42" vertex="1">
          <mxGeometry x="290" y="540" width="60" height="30" as="geometry" />
        </mxCell>
        <mxCell id="k-_fbgpfqe8nSi_xEBhA-101" value="comb" style="rounded=0;whiteSpace=wrap;html=1;" parent="k-_fbgpfqe8nSi_xEBhA-42" vertex="1">
          <mxGeometry x="70" y="520" width="120" height="95" as="geometry" />
        </mxCell>
        <mxCell id="k-_fbgpfqe8nSi_xEBhA-102" value="" style="endArrow=classic;html=1;rounded=0;entryX=0;entryY=0;entryDx=0;entryDy=0;" parent="k-_fbgpfqe8nSi_xEBhA-42" target="k-_fbgpfqe8nSi_xEBhA-101" edge="1">
          <mxGeometry width="50" height="50" relative="1" as="geometry">
            <mxPoint y="210" as="sourcePoint" />
            <mxPoint x="140" y="160" as="targetPoint" />
            <Array as="points">
              <mxPoint x="70" y="210" />
            </Array>
          </mxGeometry>
        </mxCell>
        <mxCell id="k-_fbgpfqe8nSi_xEBhA-103" value="" style="endArrow=classic;html=1;rounded=0;entryX=0.506;entryY=-0.045;entryDx=0;entryDy=0;entryPerimeter=0;" parent="k-_fbgpfqe8nSi_xEBhA-42" target="k-_fbgpfqe8nSi_xEBhA-101" edge="1">
          <mxGeometry width="50" height="50" relative="1" as="geometry">
            <mxPoint x="530" y="160" as="sourcePoint" />
            <mxPoint x="130" y="500" as="targetPoint" />
            <Array as="points">
              <mxPoint x="130" y="160" />
            </Array>
          </mxGeometry>
        </mxCell>
        <mxCell id="k-_fbgpfqe8nSi_xEBhA-104" value="" style="endArrow=classic;html=1;rounded=0;entryX=0;entryY=0.36;entryDx=0;entryDy=0;entryPerimeter=0;exitX=0.5;exitY=1;exitDx=0;exitDy=0;" parent="k-_fbgpfqe8nSi_xEBhA-42" source="k-_fbgpfqe8nSi_xEBhA-101" target="k-_fbgpfqe8nSi_xEBhA-98" edge="1">
          <mxGeometry width="50" height="50" relative="1" as="geometry">
            <mxPoint x="130" y="710" as="sourcePoint" />
            <mxPoint x="180" y="660" as="targetPoint" />
            <Array as="points">
              <mxPoint x="130" y="632" />
            </Array>
          </mxGeometry>
        </mxCell>
        <mxCell id="k-_fbgpfqe8nSi_xEBhA-105" value="" style="endArrow=classic;html=1;rounded=0;exitX=1.01;exitY=0.155;exitDx=0;exitDy=0;entryX=0;entryY=0.36;entryDx=0;entryDy=0;entryPerimeter=0;exitPerimeter=0;" parent="k-_fbgpfqe8nSi_xEBhA-42" source="k-_fbgpfqe8nSi_xEBhA-101" target="k-_fbgpfqe8nSi_xEBhA-97" edge="1">
          <mxGeometry width="50" height="50" relative="1" as="geometry">
            <mxPoint x="260" y="610" as="sourcePoint" />
            <mxPoint x="310" y="560" as="targetPoint" />
          </mxGeometry>
        </mxCell>
        <mxCell id="k-_fbgpfqe8nSi_xEBhA-43" value="rprt_empty" style="swimlane;whiteSpace=wrap;html=1;startSize=40;fillColor=#fa6800;fontColor=#000000;strokeColor=#C73500;" parent="1" vertex="1">
          <mxGeometry x="1560" y="1600" width="802" height="820" as="geometry" />
        </mxCell>
        <mxCell id="A8YUyFkikpmjCT3z8BuS-1" value="" style="verticalLabelPosition=bottom;shadow=0;dashed=0;align=center;html=1;verticalAlign=top;shape=mxgraph.electrical.logic_gates.d_type_flip-flop_with_clear_2;fillColor=#fa6800;fontColor=#000000;strokeColor=#C73500;" vertex="1" parent="k-_fbgpfqe8nSi_xEBhA-43">
          <mxGeometry x="640" y="160" width="100" height="110" as="geometry" />
        </mxCell>
        <mxCell id="A8YUyFkikpmjCT3z8BuS-2" value="" style="verticalLabelPosition=bottom;shadow=0;dashed=0;align=center;html=1;verticalAlign=top;shape=mxgraph.electrical.logic_gates.d_type_flip-flop_with_clear_2;fillColor=#fa6800;fontColor=#000000;strokeColor=#C73500;" vertex="1" parent="k-_fbgpfqe8nSi_xEBhA-43">
          <mxGeometry x="640" y="430" width="100" height="110" as="geometry" />
        </mxCell>
        <mxCell id="A8YUyFkikpmjCT3z8BuS-3" value="rgray_next" style="text;html=1;strokeColor=#C73500;fillColor=#fa6800;align=center;verticalAlign=middle;whiteSpace=wrap;rounded=0;fontColor=#000000;" vertex="1" parent="k-_fbgpfqe8nSi_xEBhA-43">
          <mxGeometry x="560" y="430" width="60" height="30" as="geometry" />
        </mxCell>
        <mxCell id="A8YUyFkikpmjCT3z8BuS-8" value="rbin" style="text;html=1;strokeColor=#C73500;fillColor=#fa6800;align=center;verticalAlign=middle;whiteSpace=wrap;rounded=0;fontColor=#000000;" vertex="1" parent="k-_fbgpfqe8nSi_xEBhA-43">
          <mxGeometry x="740" y="210" width="60" height="30" as="geometry" />
        </mxCell>
        <mxCell id="A8YUyFkikpmjCT3z8BuS-9" value="rbin_next" style="text;html=1;strokeColor=#C73500;fillColor=#fa6800;align=center;verticalAlign=middle;whiteSpace=wrap;rounded=0;fontColor=#000000;" vertex="1" parent="k-_fbgpfqe8nSi_xEBhA-43">
          <mxGeometry x="580" y="160" width="60" height="30" as="geometry" />
        </mxCell>
        <mxCell id="A8YUyFkikpmjCT3z8BuS-10" value="" style="endArrow=classic;html=1;rounded=0;exitX=0;exitY=0.36;exitDx=0;exitDy=0;exitPerimeter=0;fillColor=#fa6800;strokeColor=#C73500;" edge="1" parent="k-_fbgpfqe8nSi_xEBhA-43" source="A8YUyFkikpmjCT3z8BuS-1">
          <mxGeometry width="50" height="50" relative="1" as="geometry">
            <mxPoint x="640" y="200" as="sourcePoint" />
            <mxPoint x="480" y="320" as="targetPoint" />
            <Array as="points">
              <mxPoint x="480" y="200" />
            </Array>
          </mxGeometry>
        </mxCell>
        <mxCell id="A8YUyFkikpmjCT3z8BuS-11" value="convert to gray" style="rounded=0;whiteSpace=wrap;html=1;fillColor=#fa6800;fontColor=#000000;strokeColor=#C73500;" vertex="1" parent="k-_fbgpfqe8nSi_xEBhA-43">
          <mxGeometry x="440" y="320" width="80" height="80" as="geometry" />
        </mxCell>
        <mxCell id="A8YUyFkikpmjCT3z8BuS-12" value="" style="endArrow=classic;html=1;rounded=0;entryX=0;entryY=0.36;entryDx=0;entryDy=0;entryPerimeter=0;exitX=0.5;exitY=1;exitDx=0;exitDy=0;fillColor=#fa6800;strokeColor=#C73500;" edge="1" parent="k-_fbgpfqe8nSi_xEBhA-43" source="A8YUyFkikpmjCT3z8BuS-11" target="A8YUyFkikpmjCT3z8BuS-2">
          <mxGeometry width="50" height="50" relative="1" as="geometry">
            <mxPoint x="480" y="560" as="sourcePoint" />
            <mxPoint x="530" y="510" as="targetPoint" />
            <Array as="points">
              <mxPoint x="480" y="470" />
            </Array>
          </mxGeometry>
        </mxCell>
        <mxCell id="A8YUyFkikpmjCT3z8BuS-14" value="" style="endArrow=classic;html=1;rounded=0;fillColor=#fa6800;strokeColor=#C73500;" edge="1" parent="k-_fbgpfqe8nSi_xEBhA-43">
          <mxGeometry width="50" height="50" relative="1" as="geometry">
            <mxPoint x="770" y="200" as="sourcePoint" />
            <mxPoint x="710" y="100" as="targetPoint" />
            <Array as="points">
              <mxPoint x="770" y="100" />
            </Array>
          </mxGeometry>
        </mxCell>
        <mxCell id="A8YUyFkikpmjCT3z8BuS-15" value="tăng dần giá trị đọc" style="rounded=0;whiteSpace=wrap;html=1;fillColor=#fa6800;fontColor=#000000;strokeColor=#C73500;" vertex="1" parent="k-_fbgpfqe8nSi_xEBhA-43">
          <mxGeometry x="590" y="61" width="120" height="60" as="geometry" />
        </mxCell>
        <mxCell id="A8YUyFkikpmjCT3z8BuS-16" value="" style="endArrow=classic;html=1;rounded=0;exitX=0;exitY=0.5;exitDx=0;exitDy=0;fillColor=#fa6800;strokeColor=#C73500;" edge="1" parent="k-_fbgpfqe8nSi_xEBhA-43" source="A8YUyFkikpmjCT3z8BuS-15">
          <mxGeometry width="50" height="50" relative="1" as="geometry">
            <mxPoint x="450" y="130" as="sourcePoint" />
            <mxPoint x="560" y="200" as="targetPoint" />
            <Array as="points">
              <mxPoint x="560" y="91" />
            </Array>
          </mxGeometry>
        </mxCell>
        <mxCell id="A8YUyFkikpmjCT3z8BuS-17" value="" style="verticalLabelPosition=bottom;shadow=0;dashed=0;align=center;html=1;verticalAlign=top;shape=mxgraph.electrical.logic_gates.d_type_flip-flop_with_clear_2;fillColor=#fa6800;fontColor=#000000;strokeColor=#C73500;" vertex="1" parent="k-_fbgpfqe8nSi_xEBhA-43">
          <mxGeometry x="690" y="680" width="100" height="110" as="geometry" />
        </mxCell>
        <mxCell id="A8YUyFkikpmjCT3z8BuS-19" value="" style="endArrow=classic;html=1;rounded=0;entryX=0;entryY=0.36;entryDx=0;entryDy=0;entryPerimeter=0;exitX=1;exitY=0.5;exitDx=0;exitDy=0;fillColor=#fa6800;strokeColor=#C73500;" edge="1" parent="k-_fbgpfqe8nSi_xEBhA-43" source="A8YUyFkikpmjCT3z8BuS-21" target="A8YUyFkikpmjCT3z8BuS-17">
          <mxGeometry width="50" height="50" relative="1" as="geometry">
            <mxPoint x="600" y="720" as="sourcePoint" />
            <mxPoint x="640" y="660" as="targetPoint" />
          </mxGeometry>
        </mxCell>
        <mxCell id="A8YUyFkikpmjCT3z8BuS-20" value="arempty_val&lt;br&gt;rempty_val" style="text;html=1;strokeColor=#C73500;fillColor=#fa6800;align=center;verticalAlign=middle;whiteSpace=wrap;rounded=0;fontColor=#000000;" vertex="1" parent="k-_fbgpfqe8nSi_xEBhA-43">
          <mxGeometry x="599" y="660" width="81" height="40" as="geometry" />
        </mxCell>
        <mxCell id="A8YUyFkikpmjCT3z8BuS-21" value="define status" style="rounded=0;whiteSpace=wrap;html=1;fillColor=#fa6800;fontColor=#000000;strokeColor=#C73500;" vertex="1" parent="k-_fbgpfqe8nSi_xEBhA-43">
          <mxGeometry x="360" y="680" width="120" height="80" as="geometry" />
        </mxCell>
        <mxCell id="A8YUyFkikpmjCT3z8BuS-22" value="" style="endArrow=classic;html=1;rounded=0;fillColor=#fa6800;strokeColor=#C73500;" edge="1" parent="k-_fbgpfqe8nSi_xEBhA-43">
          <mxGeometry width="50" height="50" relative="1" as="geometry">
            <mxPoint x="480" y="470" as="sourcePoint" />
            <mxPoint x="480" y="670" as="targetPoint" />
          </mxGeometry>
        </mxCell>
        <mxCell id="A8YUyFkikpmjCT3z8BuS-23" value="" style="endArrow=classic;html=1;rounded=0;fillColor=#fa6800;strokeColor=#C73500;" edge="1" parent="k-_fbgpfqe8nSi_xEBhA-43">
          <mxGeometry width="50" height="50" relative="1" as="geometry">
            <mxPoint y="200" as="sourcePoint" />
            <mxPoint x="350" y="730" as="targetPoint" />
            <Array as="points">
              <mxPoint x="120" y="200" />
              <mxPoint x="120" y="730" />
            </Array>
          </mxGeometry>
        </mxCell>
        <mxCell id="A8YUyFkikpmjCT3z8BuS-24" value="" style="endArrow=classic;html=1;rounded=0;fillColor=#fa6800;strokeColor=#C73500;entryX=0;entryY=0;entryDx=0;entryDy=0;" edge="1" parent="k-_fbgpfqe8nSi_xEBhA-43" target="A8YUyFkikpmjCT3z8BuS-15">
          <mxGeometry width="50" height="50" relative="1" as="geometry">
            <mxPoint y="140" as="sourcePoint" />
            <mxPoint x="580" y="70" as="targetPoint" />
            <Array as="points">
              <mxPoint x="120" y="140" />
              <mxPoint x="120" y="60" />
            </Array>
          </mxGeometry>
        </mxCell>
        <mxCell id="A8YUyFkikpmjCT3z8BuS-25" value="" style="endArrow=classic;html=1;rounded=0;fillColor=#fa6800;strokeColor=#C73500;" edge="1" parent="k-_fbgpfqe8nSi_xEBhA-43">
          <mxGeometry width="50" height="50" relative="1" as="geometry">
            <mxPoint x="560" y="160" as="sourcePoint" />
            <mxPoint x="360" y="190" as="targetPoint" />
            <Array as="points">
              <mxPoint x="360" y="160" />
            </Array>
          </mxGeometry>
        </mxCell>
        <mxCell id="A8YUyFkikpmjCT3z8BuS-26" value="rgraynext_m1" style="rounded=1;whiteSpace=wrap;html=1;fillColor=#fa6800;fontColor=#000000;strokeColor=#C73500;" vertex="1" parent="k-_fbgpfqe8nSi_xEBhA-43">
          <mxGeometry x="282" y="195" width="120" height="60" as="geometry" />
        </mxCell>
        <mxCell id="A8YUyFkikpmjCT3z8BuS-27" value="" style="endArrow=classic;html=1;rounded=0;fillColor=#fa6800;strokeColor=#C73500;" edge="1" parent="k-_fbgpfqe8nSi_xEBhA-43">
          <mxGeometry width="50" height="50" relative="1" as="geometry">
            <mxPoint x="360" y="260" as="sourcePoint" />
            <mxPoint x="360" y="670" as="targetPoint" />
          </mxGeometry>
        </mxCell>
        <mxCell id="k-_fbgpfqe8nSi_xEBhA-44" value="chuyển sang mã gray =&amp;gt; mỗi lần thay đổi giá trị từ bin =&amp;gt; gray thì chỉ khác nhau 1 bit =&amp;gt; giảm lỗi thi đồng bộ qua 2 miền clock khác nhau" style="shape=callout;whiteSpace=wrap;html=1;perimeter=calloutPerimeter;fillColor=#fff2cc;strokeColor=#d6b656;" parent="1" vertex="1">
          <mxGeometry x="3502" y="170" width="208" height="170" as="geometry" />
        </mxCell>
        <mxCell id="k-_fbgpfqe8nSi_xEBhA-45" value="chuyển sang mã gray =&amp;gt; mỗi lần thay đổi giá trị từ bin =&amp;gt; gray thì chỉ khác nhau 1 bit =&amp;gt; giảm lỗi thi đồng bộ qua 2 miền clock khác nhau" style="shape=callout;whiteSpace=wrap;html=1;perimeter=calloutPerimeter;fillColor=#fff2cc;strokeColor=#d6b656;" parent="1" vertex="1">
          <mxGeometry x="4160" y="180" width="201" height="170" as="geometry" />
        </mxCell>
        <mxCell id="k-_fbgpfqe8nSi_xEBhA-46" value="so sánh rprt, wprt để xác định status của fifo" style="shape=callout;whiteSpace=wrap;html=1;perimeter=calloutPerimeter;fillColor=#d80073;fontColor=#ffffff;strokeColor=#A50040;" parent="1" vertex="1">
          <mxGeometry x="-256" y="1100" width="120" height="123" as="geometry" />
        </mxCell>
        <mxCell id="k-_fbgpfqe8nSi_xEBhA-47" value="địa chỉ in/out đều là mã gray =&amp;gt; encode/decode mã gray này sau đó mới xử lý" style="shape=callout;whiteSpace=wrap;html=1;perimeter=calloutPerimeter;fillColor=#d80073;fontColor=#ffffff;strokeColor=#A50040;" parent="1" vertex="1">
          <mxGeometry x="-79" y="1168" width="140" height="133" as="geometry" />
        </mxCell>
        <mxCell id="k-_fbgpfqe8nSi_xEBhA-48" value="so sánh rprt, wprt để xác định status của fifo" style="shape=callout;whiteSpace=wrap;html=1;perimeter=calloutPerimeter;fillColor=#fa6800;fontColor=#000000;strokeColor=#C73500;" parent="1" vertex="1">
          <mxGeometry x="2039" y="1458" width="120" height="123" as="geometry" />
        </mxCell>
        <mxCell id="k-_fbgpfqe8nSi_xEBhA-49" value="địa chỉ in/out đều là mã gray =&amp;gt; encode/decode mã gray này sau đó mới xử lý" style="shape=callout;whiteSpace=wrap;html=1;perimeter=calloutPerimeter;fillColor=#fa6800;fontColor=#000000;strokeColor=#C73500;" parent="1" vertex="1">
          <mxGeometry x="1783" y="1441" width="140" height="133" as="geometry" />
        </mxCell>
        <mxCell id="k-_fbgpfqe8nSi_xEBhA-50" value="" style="endArrow=classic;html=1;rounded=0;" parent="1" edge="1">
          <mxGeometry width="50" height="50" relative="1" as="geometry">
            <mxPoint x="-460" y="1570" as="sourcePoint" />
            <mxPoint x="-300" y="1570" as="targetPoint" />
          </mxGeometry>
        </mxCell>
        <mxCell id="k-_fbgpfqe8nSi_xEBhA-52" value="wp2_rprt&lt;br&gt;(gray)" style="text;html=1;strokeColor=#A50040;fillColor=#d80073;align=center;verticalAlign=middle;whiteSpace=wrap;rounded=0;fontColor=#ffffff;" parent="1" vertex="1">
          <mxGeometry x="-550" y="1520" width="80" height="50" as="geometry" />
        </mxCell>
        <mxCell id="k-_fbgpfqe8nSi_xEBhA-53" value="" style="endArrow=classic;html=1;rounded=0;" parent="1" edge="1">
          <mxGeometry width="50" height="50" relative="1" as="geometry">
            <mxPoint x="-460" y="1650" as="sourcePoint" />
            <mxPoint x="-300" y="1650" as="targetPoint" />
          </mxGeometry>
        </mxCell>
        <mxCell id="k-_fbgpfqe8nSi_xEBhA-54" value="s_dstm.valid" style="text;html=1;strokeColor=#A50040;fillColor=#d80073;align=center;verticalAlign=middle;whiteSpace=wrap;rounded=0;fontColor=#ffffff;" parent="1" vertex="1">
          <mxGeometry x="-570" y="1630" width="100" height="60" as="geometry" />
        </mxCell>
        <mxCell id="k-_fbgpfqe8nSi_xEBhA-55" value="" style="endArrow=classic;html=1;rounded=0;entryX=0.001;entryY=0.452;entryDx=0;entryDy=0;exitX=1;exitY=0.36;exitDx=0;exitDy=0;exitPerimeter=0;entryPerimeter=0;" parent="1" source="k-_fbgpfqe8nSi_xEBhA-77" target="k-_fbgpfqe8nSi_xEBhA-56" edge="1">
          <mxGeometry width="50" height="50" relative="1" as="geometry">
            <mxPoint x="350" y="1460" as="sourcePoint" />
            <mxPoint x="494" y="1464.52" as="targetPoint" />
          </mxGeometry>
        </mxCell>
        <mxCell id="k-_fbgpfqe8nSi_xEBhA-56" value="w_prt(gray)" style="text;html=1;strokeColor=#A50040;fillColor=#d80073;align=center;verticalAlign=middle;whiteSpace=wrap;rounded=0;fontColor=#ffffff;" parent="1" vertex="1">
          <mxGeometry x="505" y="1444" width="80" height="40" as="geometry" />
        </mxCell>
        <mxCell id="k-_fbgpfqe8nSi_xEBhA-57" value="" style="endArrow=classic;html=1;rounded=0;" parent="1" edge="1">
          <mxGeometry width="50" height="50" relative="1" as="geometry">
            <mxPoint x="359.5" y="1699.6" as="sourcePoint" />
            <mxPoint x="499.5" y="1699.6" as="targetPoint" />
          </mxGeometry>
        </mxCell>
        <mxCell id="k-_fbgpfqe8nSi_xEBhA-58" value="w_addr" style="text;html=1;strokeColor=#A50040;fillColor=#d80073;align=center;verticalAlign=middle;whiteSpace=wrap;rounded=0;fontColor=#ffffff;" parent="1" vertex="1">
          <mxGeometry x="520" y="1680" width="80" height="40" as="geometry" />
        </mxCell>
        <mxCell id="k-_fbgpfqe8nSi_xEBhA-59" value="" style="endArrow=classic;html=1;rounded=0;exitX=1;exitY=0.36;exitDx=0;exitDy=0;exitPerimeter=0;entryX=0;entryY=1;entryDx=0;entryDy=0;" parent="1" source="k-_fbgpfqe8nSi_xEBhA-98" target="k-_fbgpfqe8nSi_xEBhA-60" edge="1">
          <mxGeometry width="50" height="50" relative="1" as="geometry">
            <mxPoint x="359.5" y="1890" as="sourcePoint" />
            <mxPoint x="520" y="1940" as="targetPoint" />
          </mxGeometry>
        </mxCell>
        <mxCell id="k-_fbgpfqe8nSi_xEBhA-60" value="m_stalvl.full&lt;br style=&quot;border-color: var(--border-color);&quot;&gt;m_stalvl.almostfull" style="text;html=1;strokeColor=#A50040;fillColor=#d80073;align=center;verticalAlign=middle;whiteSpace=wrap;rounded=0;fontColor=#ffffff;" parent="1" vertex="1">
          <mxGeometry x="520" y="1877" width="130" height="113" as="geometry" />
        </mxCell>
        <mxCell id="k-_fbgpfqe8nSi_xEBhA-61" value="" style="endArrow=classic;html=1;rounded=0;fillColor=#fa6800;strokeColor=#C73500;" parent="1" edge="1">
          <mxGeometry width="50" height="50" relative="1" as="geometry">
            <mxPoint x="1440" y="1740" as="sourcePoint" />
            <mxPoint x="1560" y="1740" as="targetPoint" />
          </mxGeometry>
        </mxCell>
        <mxCell id="k-_fbgpfqe8nSi_xEBhA-62" value="" style="endArrow=classic;html=1;rounded=0;" parent="1" edge="1">
          <mxGeometry width="50" height="50" relative="1" as="geometry">
            <mxPoint x="-300" y="1800" as="sourcePoint" />
            <mxPoint x="-460" y="1800" as="targetPoint" />
          </mxGeometry>
        </mxCell>
        <mxCell id="k-_fbgpfqe8nSi_xEBhA-63" value="s_dstm.ready" style="rounded=0;whiteSpace=wrap;html=1;fillColor=#d80073;fontColor=#ffffff;strokeColor=#A50040;" parent="1" vertex="1">
          <mxGeometry x="-580" y="1770" width="120" height="60" as="geometry" />
        </mxCell>
        <mxCell id="k-_fbgpfqe8nSi_xEBhA-64" value="m_dstm.ready" style="text;html=1;strokeColor=#C73500;fillColor=#fa6800;align=center;verticalAlign=middle;whiteSpace=wrap;rounded=0;fontColor=#000000;" parent="1" vertex="1">
          <mxGeometry x="1350" y="1720" width="90" height="45" as="geometry" />
        </mxCell>
        <mxCell id="k-_fbgpfqe8nSi_xEBhA-65" value="" style="endArrow=classic;html=1;rounded=0;fillColor=#fa6800;strokeColor=#C73500;" parent="1" edge="1">
          <mxGeometry width="50" height="50" relative="1" as="geometry">
            <mxPoint x="1450" y="1800" as="sourcePoint" />
            <mxPoint x="1560" y="1800" as="targetPoint" />
          </mxGeometry>
        </mxCell>
        <mxCell id="k-_fbgpfqe8nSi_xEBhA-66" value="rq2_wptr" style="text;html=1;strokeColor=#C73500;fillColor=#fa6800;align=center;verticalAlign=middle;whiteSpace=wrap;rounded=0;fontColor=#000000;" parent="1" vertex="1">
          <mxGeometry x="1380" y="1785" width="60" height="30" as="geometry" />
        </mxCell>
        <mxCell id="k-_fbgpfqe8nSi_xEBhA-67" value="" style="endArrow=classic;html=1;rounded=0;exitX=1;exitY=0.36;exitDx=0;exitDy=0;exitPerimeter=0;fillColor=#fa6800;strokeColor=#C73500;" parent="1" edge="1" source="A8YUyFkikpmjCT3z8BuS-17">
          <mxGeometry width="50" height="50" relative="1" as="geometry">
            <mxPoint x="2370" y="2320" as="sourcePoint" />
            <mxPoint x="2520" y="2320" as="targetPoint" />
          </mxGeometry>
        </mxCell>
        <mxCell id="k-_fbgpfqe8nSi_xEBhA-68" value="m_stalvl.empty&lt;br style=&quot;border-color: var(--border-color);&quot;&gt;m_stalvl.almostempty" style="text;html=1;strokeColor=#C73500;fillColor=#fa6800;align=center;verticalAlign=middle;whiteSpace=wrap;rounded=0;fontColor=#000000;" parent="1" vertex="1">
          <mxGeometry x="2520" y="2280" width="150" height="80" as="geometry" />
        </mxCell>
        <mxCell id="k-_fbgpfqe8nSi_xEBhA-70" value="raddr" style="text;html=1;strokeColor=#C73500;fillColor=#fa6800;align=center;verticalAlign=middle;whiteSpace=wrap;rounded=0;fontColor=#000000;" parent="1" vertex="1">
          <mxGeometry x="2540" y="1785" width="60" height="30" as="geometry" />
        </mxCell>
        <mxCell id="k-_fbgpfqe8nSi_xEBhA-71" value="" style="endArrow=classic;html=1;rounded=0;exitX=1;exitY=0.36;exitDx=0;exitDy=0;exitPerimeter=0;entryX=0;entryY=0.75;entryDx=0;entryDy=0;fillColor=#fa6800;strokeColor=#C73500;" parent="1" edge="1" target="k-_fbgpfqe8nSi_xEBhA-72" source="A8YUyFkikpmjCT3z8BuS-2">
          <mxGeometry width="50" height="50" relative="1" as="geometry">
            <mxPoint x="2370" y="1920" as="sourcePoint" />
            <mxPoint x="2510" y="1920" as="targetPoint" />
          </mxGeometry>
        </mxCell>
        <mxCell id="k-_fbgpfqe8nSi_xEBhA-72" value="rptrt&lt;br&gt;(gray)" style="text;html=1;strokeColor=#C73500;fillColor=#fa6800;align=center;verticalAlign=middle;whiteSpace=wrap;rounded=0;fontColor=#000000;" parent="1" vertex="1">
          <mxGeometry x="2540" y="2040" width="60" height="40" as="geometry" />
        </mxCell>
        <mxCell id="k-_fbgpfqe8nSi_xEBhA-73" value="" style="endArrow=classic;html=1;rounded=0;fillColor=#fa6800;strokeColor=#C73500;" parent="1" edge="1">
          <mxGeometry width="50" height="50" relative="1" as="geometry">
            <mxPoint x="2362" y="2194.29" as="sourcePoint" />
            <mxPoint x="2512" y="2194.29" as="targetPoint" />
          </mxGeometry>
        </mxCell>
        <mxCell id="k-_fbgpfqe8nSi_xEBhA-74" value="m_dstm.valid" style="text;html=1;strokeColor=#C73500;fillColor=#fa6800;align=center;verticalAlign=middle;whiteSpace=wrap;rounded=0;fontColor=#000000;" parent="1" vertex="1">
          <mxGeometry x="2540" y="2170" width="110" height="50" as="geometry" />
        </mxCell>
        <mxCell id="k-_fbgpfqe8nSi_xEBhA-95" value="" style="endArrow=classic;html=1;rounded=0;entryX=0;entryY=0.135;entryDx=0;entryDy=0;exitX=1;exitY=0.36;exitDx=0;exitDy=0;exitPerimeter=0;entryPerimeter=0;" parent="1" source="k-_fbgpfqe8nSi_xEBhA-97" target="k-_fbgpfqe8nSi_xEBhA-60" edge="1">
          <mxGeometry width="50" height="50" relative="1" as="geometry">
            <mxPoint x="180" y="1890" as="sourcePoint" />
            <mxPoint x="360" y="1890" as="targetPoint" />
          </mxGeometry>
        </mxCell>
        <mxCell id="k-_fbgpfqe8nSi_xEBhA-69" value="" style="endArrow=classic;html=1;rounded=0;fillColor=#fa6800;strokeColor=#C73500;" parent="1" edge="1">
          <mxGeometry width="50" height="50" relative="1" as="geometry">
            <mxPoint x="2460" y="1800" as="sourcePoint" />
            <mxPoint x="2540" y="1800" as="targetPoint" />
          </mxGeometry>
        </mxCell>
        <mxCell id="A8YUyFkikpmjCT3z8BuS-6" value="bỏ slot đầu" style="rounded=0;whiteSpace=wrap;html=1;fillColor=#fa6800;fontColor=#000000;strokeColor=#C73500;" vertex="1" parent="1">
          <mxGeometry x="2410" y="1777.5" width="51" height="45" as="geometry" />
        </mxCell>
        <mxCell id="A8YUyFkikpmjCT3z8BuS-7" value="" style="endArrow=classic;html=1;rounded=0;exitX=1;exitY=0.36;exitDx=0;exitDy=0;exitPerimeter=0;entryX=0;entryY=0.5;entryDx=0;entryDy=0;fillColor=#fa6800;strokeColor=#C73500;" edge="1" parent="1" source="A8YUyFkikpmjCT3z8BuS-1" target="A8YUyFkikpmjCT3z8BuS-6">
          <mxGeometry width="50" height="50" relative="1" as="geometry">
            <mxPoint x="2440" y="1960" as="sourcePoint" />
            <mxPoint x="2490" y="1910" as="targetPoint" />
          </mxGeometry>
        </mxCell>
      </root>
    </mxGraphModel>
  </diagram>
</mxfile>
